<svg xmlns="http://www.w3.org/2000/svg" viewBox="0 0 256 256">
  <defs>
    <linearGradient id="grad" x1="0%" y1="0%" x2="100%" y2="100%">
      <stop offset="0%" style="stop-color:#3b82f6;stop-opacity:1" />
      <stop offset="100%" style="stop-color:#10b981;stop-opacity:1" />
    </linearGradient>
  </defs>
  <path fill="url(#grad)" d="M128 32c-35.3 0-64 28.7-64 64 0 24.5 13.8 45.8 34 56.6V176c0 8.8 7.2 16 16 16h28c8.8 0 16-7.2 16-16v-23.4c20.2-10.8 34-32.1 34-56.6 0-35.3-28.7-64-64-64zm-14 168v16c0 4.4 3.6 8 8 8h12c4.4 0 8-3.6 8-8v-16h-28z"/>
  <path fill="#ffffff" d="M160 88l-36 36-16-16-12 12 28 28 48-48z"/>
</svg>